<?xml version="1.0" encoding="UTF-8" standalone="no"?>
<svg
   xmlns:dc="http://purl.org/dc/elements/1.1/"
   xmlns:cc="http://creativecommons.org/ns#"
   xmlns:rdf="http://www.w3.org/1999/02/22-rdf-syntax-ns#"
   xmlns:svg="http://www.w3.org/2000/svg"
   xmlns="http://www.w3.org/2000/svg"
   xmlns:sodipodi="http://sodipodi.sourceforge.net/DTD/sodipodi-0.dtd"
   xmlns:inkscape="http://www.inkscape.org/namespaces/inkscape"
   version="1.1"
   id="svg2"
   xml:space="preserve"
   width="918.29199"
   height="180.01733"
   viewBox="0 0 918.29199 180.01733"
   sodipodi:docname="Lab_Logo.ai"><metadata
     id="metadata8"><rdf:RDF><cc:Work
         rdf:about=""><dc:format>image/svg+xml</dc:format><dc:type
           rdf:resource="http://purl.org/dc/dcmitype/StillImage" /></cc:Work></rdf:RDF></metadata><defs
     id="defs6"><clipPath
       clipPathUnits="userSpaceOnUse"
       id="clipPath18"><path
         d="M 0,135.013 H 688.719 V 0 H 0 Z"
         id="path16" /></clipPath></defs><sodipodi:namedview
     pagecolor="#ffffff"
     bordercolor="#666666"
     borderopacity="1"
     objecttolerance="10"
     gridtolerance="10"
     guidetolerance="10"
     inkscape:pageopacity="0"
     inkscape:pageshadow="2"
     inkscape:window-width="640"
     inkscape:window-height="480"
     id="namedview4" /><g
     id="g10"
     inkscape:groupmode="layer"
     inkscape:label="Lab_Logo"
     transform="matrix(1.3333333,0,0,-1.3333333,0,180.01733)"><g
       id="g12"><g
         id="g14"
         clip-path="url(#clipPath18)"><g
           id="g20"
           transform="translate(344.4032,0.0452)"><path
             d="m 0,0 c -114.181,0 -228.363,0.004 -342.544,-0.045 -1.597,-0.001 -1.861,0.361 -1.859,1.901 0.051,43.808 0.049,87.617 0.004,131.425 -0.002,1.396 0.283,1.685 1.677,1.685 228.427,-0.039 456.854,-0.039 685.281,0.001 1.484,10e-4 1.755,-0.382 1.754,-1.798 -0.041,-43.808 -0.042,-87.616 0.003,-131.424 0.001,-1.452 -0.324,-1.782 -1.772,-1.781 C 228.362,0.003 114.181,0 0,0"
             style="fill:#fdfdfc;fill-opacity:1;fill-rule:nonzero;stroke:none"
             id="path22" /></g><g
           id="g24"
           transform="translate(55.4725,57.886)"><path
             d="m 0,0 c -3.468,-1.621 -6.448,-4.012 -9.573,-6.167 -1.338,-0.923 -2.94,-1.577 -3.737,-3.161 -3.586,-2.717 -7.231,-5.354 -10.67,-8.264 -3.598,-3.044 -7.025,-6.246 -9.764,-10.119 -2.348,-3.319 -3.217,-6.986 -2.487,-11.008 0.233,-1.287 0.179,-2.455 -1.094,-3.216 -5.188,4.074 -8.299,9.621 -10.594,15.623 -5.542,14.5 -6.488,29.395 -2.795,44.451 2.155,8.784 6.85,16.388 12.554,23.299 9.803,11.876 21.725,21.138 35.309,28.28 8.899,4.679 19.253,-0.093 22.121,-8.672 0.956,-2.862 1.481,-5.876 2.855,-8.597 0.523,-2.064 1.027,-4.133 1.238,-6.261 0.218,-5.528 0.506,-11.06 -0.98,-16.483 C 22.07,28.296 21.634,26.922 21.146,25.565 17.717,15.839 11.5,8.239 3.336,2.151 2.281,1.364 1.427,0.22 0,0"
             style="fill:#31a0d7;fill-opacity:1;fill-rule:nonzero;stroke:none"
             id="path26" /></g><g
           id="g28"
           transform="translate(86.015,117.0403)"><path
             d="m 0,0 c 2.347,10.274 13.139,15.461 22.415,10.611 15.55,-8.131 29.013,-18.81 39.21,-33.303 6.517,-9.264 10.381,-19.436 10.795,-30.944 0.322,-8.973 -0.243,-17.786 -2.839,-26.386 -2.256,-7.471 -5.348,-14.525 -11.171,-20.009 -0.449,-0.423 -0.743,-1.098 -1.519,-1.057 -1.563,1.025 -1.003,2.567 -0.759,3.875 0.644,3.451 -0.283,6.455 -2.033,9.38 -2.256,3.771 -5.493,6.627 -8.62,9.57 -3.09,2.908 -6.545,5.388 -9.925,7.95 -0.933,0.708 -1.863,1.065 -3.002,0.919 -0.478,0.657 -0.341,1.589 -1.163,2.133 -3.48,2.303 -6.761,4.908 -10.457,6.884 -0.786,0.437 -1.114,1.145 -1.186,2.005 -0.041,0.94 0.499,1.555 1.168,2.098 3.825,3.107 4.708,7.352 4.448,11.962 -0.097,1.719 -0.409,3.439 -0.941,5.11 -0.797,2.503 -1.648,4.987 -1.332,7.719 0.147,1.272 -0.434,2.515 -0.86,3.727 -0.841,2.998 -2.978,4.838 -5.569,6.272 -1.795,1.959 -2.06,4.722 -0.599,7.122 1.239,2.038 2.673,3.95 4.067,5.881 0.897,1.241 0.754,2.043 -0.528,2.821 -1.208,0.734 -2.364,1.556 -3.512,2.386 -1.509,1.089 -1.579,1.036 -2.216,-0.677 -1.042,-2.798 -2.19,-5.536 -4.822,-7.278 -0.375,-0.25 -0.737,-0.52 -1.162,-0.681 -1.353,-0.514 -1.941,-0.184 -2.063,1.273 -0.096,1.155 -0.132,2.327 0.089,3.475 0.405,2.114 0.303,4.232 0.121,6.348 -0.531,0.721 -1.281,0.35 -1.943,0.401 C 2.725,-0.309 1.3,-0.776 0,0"
             style="fill:#31a0d7;fill-opacity:1;fill-rule:nonzero;stroke:none"
             id="path30" /></g><g
           id="g32"
           transform="translate(106.224,58.5735)"><path
             d="m 0,0 c 0.29,-0.572 0.273,-1.344 1.037,-1.607 0.426,-0.408 0.763,-0.878 0.921,-1.45 1.585,-5.735 3.057,-11.484 2.001,-17.521 -1.438,-6.453 -3.904,-12.373 -8.866,-16.966 -1.072,-0.992 -2.111,-2.077 -3.685,-2.259 -6.845,-3.14 -13.319,-1.657 -19.554,1.735 -9.162,4.983 -16.352,12.024 -21.181,21.334 -2.355,4.541 -3.516,9.314 -1.164,14.297 0.32,0.678 0.28,1.234 -0.26,1.749 1.146,1.429 2.79,2.231 4.188,3.343 7.488,5.957 13.214,13.222 16.556,22.282 0.509,0.851 1.244,0.557 1.871,0.279 6.157,-2.728 11.07,-6.77 9.841,-15.934 -0.58,-4.318 -1.306,-8.506 -4.552,-11.624 -1.931,-1.855 -3.657,-3.812 -4.954,-6.128 -2.997,-5.351 -4.512,-11.036 -3.878,-17.249 0.27,-2.649 0.535,-5.264 1.609,-7.727 0.304,-0.699 0.527,-1.452 1.332,-2.151 -0.493,2.314 -0.725,4.451 -0.918,6.595 -0.711,7.884 0.748,15.156 5.853,21.435 0.571,0.702 1.165,1.384 1.867,1.952 3.947,3.19 5.769,7.471 6.341,12.396 0.112,0.966 0.201,1.928 0.682,2.799 0.935,0.571 1.433,-0.223 1.907,-0.726 C -10.055,5.722 -6.357,3.818 -2.402,2.39 -1.146,1.936 -0.267,1.341 0,0"
             style="fill:#c52328;fill-opacity:1;fill-rule:nonzero;stroke:none"
             id="path34" /></g><g
           id="g36"
           transform="translate(403.0428,64.9016)"><path
             d="m 0,0 c 0.766,0.042 1.531,0.12 2.296,0.12 12.284,0.008 24.568,0.021 36.852,-0.017 1.437,-0.004 2.457,0.293 3.458,1.511 2.491,3.032 7.302,2.254 8.937,-1.333 1.392,-3.052 2.703,-6.14 4.061,-9.208 0.223,-0.504 0.274,-1.137 1.017,-1.444 0.639,2.278 0.609,4.593 0.797,6.868 1.35,16.345 2.652,32.694 3.987,49.041 0.228,2.79 1.993,4.323 4.895,4.36 3.079,0.039 4.871,-1.419 5.144,-4.279 1.255,-13.113 2.489,-26.227 3.732,-39.341 1.012,-10.668 2.023,-21.337 3.051,-32.003 0.057,-0.597 -0.093,-1.281 0.576,-1.902 1.035,2.324 1.291,4.75 1.817,7.085 1.321,5.853 2.549,11.727 3.77,17.602 0.451,2.17 1.576,3.652 3.789,4.127 0.766,0.164 1.199,0.663 1.654,1.223 6.81,8.374 19.443,8.643 26.58,0.509 0.952,-1.085 1.904,-1.474 3.307,-1.464 8.296,0.056 16.592,0.024 24.888,0.023 0.828,-1.416 1.31,-2.951 1.544,-4.569 -2.247,-0.037 -4.495,-0.101 -6.742,-0.106 -6.819,-0.014 -13.639,0.09 -20.455,-0.048 -3.001,-0.062 -5.156,0.816 -7.146,3.232 -4.89,5.933 -13.196,5.398 -17.649,-0.897 -0.614,-0.869 -1.295,-1.739 -2.312,-1.945 -1.584,-0.322 -1.903,-1.373 -2.189,-2.722 -1.976,-9.342 -4.013,-18.671 -6.035,-28.002 -0.804,-3.709 -2.644,-5.234 -5.917,-4.924 -2.61,0.247 -4.166,1.872 -4.417,4.502 -1.485,15.558 -2.995,31.114 -4.479,46.672 -0.553,5.785 -1.052,11.576 -1.597,17.362 -0.126,1.343 -0.339,2.679 -0.926,4.052 -0.184,-1.717 -0.41,-3.431 -0.549,-5.152 -1.156,-14.292 -2.293,-28.585 -3.445,-42.877 -0.212,-2.627 -1.464,-4.075 -3.891,-4.575 -2.453,-0.506 -4.91,0.637 -5.941,2.901 -1.712,3.756 -3.376,7.533 -4.994,11.331 -0.543,1.274 -0.955,2.087 -2.343,0.731 -0.842,-0.821 -2.061,-1.017 -3.249,-1.017 -13.38,-0.005 -26.76,-0.008 -40.14,-0.006 -0.186,0 -0.373,0.082 -0.558,0.126 -0.324,1.541 -0.163,3.237 -1.433,4.473 0.029,0.024 0.068,0.074 0.088,0.068 C -0.107,0.071 -0.056,0.03 0,0"
             style="fill:#dc2227;fill-opacity:1;fill-rule:nonzero;stroke:none"
             id="path38" /></g><g
           id="g40"
           transform="translate(18.1478,15.9514)"><path
             d="m 0,0 c 0.724,1.202 0.769,2.402 0.522,3.828 -0.868,5.038 1.205,9.158 4.358,12.897 5.154,6.11 11.534,10.788 17.872,15.516 0.329,0.245 0.837,0.249 1.263,0.365 5.901,-7.23 12.252,-14.11 17.259,-22.04 2.275,-3.601 4.421,-7.295 4.861,-11.68 0.441,-4.389 -1.107,-7.234 -5.097,-9.001 C 34.259,-13.118 27.291,-12.989 20.28,-11.072 13.999,-9.354 8.389,-6.257 3.148,-2.441 2.075,-1.66 1.048,-0.815 0,0"
             style="fill:#015383;fill-opacity:1;fill-rule:nonzero;stroke:none"
             id="path42" /></g><g
           id="g44"
           transform="translate(97.6317,18.7708)"><path
             d="m 0,0 c 6.983,4.412 10.107,11.316 12.119,18.937 2.32,3.528 5.26,6.552 7.898,9.822 0.203,0.251 0.519,0.36 0.862,0.3 0.772,0.527 1.43,0.77 2.362,0.065 C 29.134,24.665 35.032,20.211 39.956,14.641 42.794,11.429 45.199,7.94 45.183,3.369 45.18,2.604 45.044,1.835 44.938,1.073 44.755,-0.252 44.565,-1.572 45.274,-2.818 38.78,-8.364 31.534,-12.483 23.166,-14.402 17.274,-15.753 11.425,-15.561 5.699,-13.514 0.312,-11.589 -1.749,-7.65 -0.37,-2.085 -0.2,-1.401 -0.121,-0.695 0,0"
             style="fill:#015383;fill-opacity:1;fill-rule:nonzero;stroke:none"
             id="path46" /></g><g
           id="g48"
           transform="translate(627.3651,84.5232)"><path
             d="m 0,0 c -0.009,6.458 -0.101,12.919 0.36,19.369 0.234,3.266 1.329,4.286 4.627,4.307 1.801,0.011 3.605,0.052 5.404,-0.011 5.19,-0.182 9.123,-4.307 9.237,-9.514 0.08,-3.642 0.097,-7.248 -1.862,-10.512 -0.42,-0.7 -0.291,-1.371 0.088,-2.012 1.686,-2.845 1.907,-5.958 1.777,-9.168 -0.089,-2.192 -0.006,-4.392 -0.021,-6.589 -0.035,-5.179 -3.76,-9.195 -8.959,-9.539 -2.114,-0.141 -4.244,-0.109 -6.365,-0.059 -2.716,0.065 -3.691,1.072 -3.898,3.971 C -0.083,-13.179 -0.022,-6.589 0,0"
             style="fill:#000000;fill-opacity:1;fill-rule:nonzero;stroke:none"
             id="path50" /></g><g
           id="g52"
           transform="translate(223.9628,82.782)"><path
             d="m 0,0 c -0.064,6.522 0.012,13.042 0.327,19.558 0.158,3.278 1.263,4.393 4.502,4.421 1.864,0.016 3.729,0.026 5.593,-0.003 5.269,-0.08 9.393,-4.156 9.497,-9.455 0.066,-3.356 0.005,-6.716 0.014,-10.074 0.007,-2.906 -1.164,-5.346 -3.327,-7.129 -2.271,-1.873 -2.485,-4.002 -1.619,-6.561 1.221,-3.604 2.388,-7.225 3.56,-10.845 0.325,-1.001 1.107,-2.186 -0.222,-2.921 -1.272,-0.703 -2.63,-0.455 -3.755,0.537 -0.844,0.746 -1.3,1.751 -1.677,2.79 -1.409,3.878 -2.813,7.757 -4.225,11.634 C 8.514,-7.625 8.366,-7.189 8.141,-6.803 7.766,-6.159 7.477,-5.215 6.513,-5.475 5.666,-5.704 5.799,-6.626 5.781,-7.305 5.669,-11.628 5.594,-15.954 5.504,-20.278 5.482,-21.362 5.199,-22.34 4.211,-22.932 2.364,-24.039 0.412,-22.789 0.336,-20.333 0.17,-14.978 0.1,-9.619 0.004,-4.262 -0.021,-2.842 0,-1.421 0,0"
             style="fill:#000000;fill-opacity:1;fill-rule:nonzero;stroke:none"
             id="path54" /></g><g
           id="g56"
           transform="translate(324.3217,80.3108)"><path
             d="m 0,0 c 0,-5.875 -0.011,-11.75 0.007,-17.624 0.005,-1.673 -0.464,-2.97 -2.339,-3.181 -1.631,-0.183 -2.717,0.769 -2.843,2.901 -0.23,3.862 -0.171,7.741 -0.357,11.608 -0.132,2.75 -1.175,3.637 -3.905,3.679 -3.271,0.05 -4.309,-0.874 -4.419,-4.169 -0.104,-3.097 -0.062,-6.198 -0.119,-9.297 -0.016,-0.899 -0.084,-1.809 -0.245,-2.691 -0.221,-1.208 -0.966,-1.956 -2.231,-2.035 -1.307,-0.082 -2.016,0.676 -2.37,1.842 -0.376,1.238 -0.608,2.494 -0.606,3.807 0.018,10.721 -0.002,21.441 0.015,32.162 0.009,5.523 4.131,9.601 9.681,9.636 5.632,0.034 9.923,-4.057 9.964,-9.589 C 0.276,11.366 0.243,5.683 0.243,0 0.162,0 0.081,0 0,0"
             style="fill:#000000;fill-opacity:1;fill-rule:nonzero;stroke:none"
             id="path58" /></g><g
           id="g60"
           transform="translate(603.6317,81.6834)"><path
             d="m 0,0 c -0.015,-6.004 0.127,-12.012 -0.33,-18.007 -0.169,-2.21 -1.218,-3.151 -3.001,-2.836 -1.572,0.276 -2.09,1.46 -2.156,2.815 -0.12,2.448 -0.081,4.905 -0.133,7.357 -0.033,1.613 0.013,3.242 -0.196,4.834 -0.318,2.431 -1.379,3.083 -4.46,3.034 -2.615,-0.041 -3.616,-0.711 -3.782,-3.095 -0.223,-3.216 -0.156,-6.452 -0.244,-9.679 -0.031,-1.158 -0.059,-2.33 -0.25,-3.468 -0.191,-1.147 -0.99,-1.747 -2.17,-1.835 -1.123,-0.084 -1.815,0.435 -2.242,1.444 -0.592,1.399 -0.726,2.871 -0.727,4.362 -0.005,10.657 -0.023,21.314 0.005,31.971 0.016,5.505 4.206,9.611 9.716,9.619 5.548,0.008 9.945,-4.234 9.965,-9.659 C 0.017,11.238 0,5.619 0,0"
             style="fill:#000000;fill-opacity:1;fill-rule:nonzero;stroke:none"
             id="path62" /></g><g
           id="g64"
           transform="translate(403.0428,64.9016)"><path
             d="m 0,0 c 1.982,-1.061 1.542,-2.768 1.177,-4.453 -0.895,-0.771 -1.985,-0.864 -3.088,-0.868 -3.474,-0.01 -6.949,0.051 -10.421,-0.029 -1.948,-0.044 -2.891,0.882 -3.022,2.712 -0.162,2.253 -0.33,4.513 -0.318,6.769 0.055,11.044 -0.364,22.096 0.534,33.126 0.258,3.153 1.43,4.463 4.507,4.679 3.143,0.22 6.295,0.215 9.444,-0.019 1.691,-0.126 2.637,-0.962 2.56,-2.717 -0.073,-1.661 -1.08,-2.407 -2.65,-2.45 -1.478,-0.04 -2.96,0.037 -4.434,-0.051 -3.018,-0.18 -4.163,-1.316 -4.258,-4.345 -0.092,-2.905 -0.094,-5.815 -0.034,-8.721 0.095,-4.49 0.897,-5.244 5.359,-5.307 2.525,-0.035 3.453,-0.942 3.251,-3.173 C -1.521,13.732 -2.224,12.881 -3.706,12.814 -4.091,12.797 -4.478,12.803 -4.863,12.8 -9.336,12.77 -9.923,12.195 -10.009,7.626 -10.035,6.271 -10.041,4.906 -9.912,3.56 -9.707,1.423 -8.867,0.565 -6.732,0.374 -4.495,0.174 -2.245,0.118 0,0"
             style="fill:#000000;fill-opacity:1;fill-rule:nonzero;stroke:none"
             id="path66" /></g><g
           id="g68"
           transform="translate(265.8588,84.0706)"><path
             d="m 0,0 c -0.098,5.19 0.081,11.577 0.465,17.958 0.194,3.218 1.422,4.588 4.597,4.81 3.141,0.219 6.291,0.219 9.437,-0.028 1.585,-0.125 2.559,-0.906 2.545,-2.551 C 17.03,18.458 15.997,17.629 14.332,17.582 12.855,17.54 11.374,17.618 9.901,17.529 7.011,17.354 5.975,16.402 5.732,13.53 5.417,9.797 5.322,6.05 5.88,2.328 6.236,-0.04 7.075,-0.73 9.477,-0.829 c 0.642,-0.025 1.286,0 1.928,-0.023 2.069,-0.075 2.866,-0.868 2.842,-2.807 -0.023,-1.912 -0.825,-2.652 -2.93,-2.706 -5.271,-0.134 -5.573,-0.44 -5.739,-5.793 -0.185,-5.926 0.405,-6.57 6.243,-6.835 0.962,-0.043 1.923,-0.128 2.885,-0.168 1.719,-0.071 2.38,-1.108 2.348,-2.678 -0.032,-1.571 -0.759,-2.589 -2.454,-2.599 -3.986,-0.026 -7.971,-0.053 -11.955,-0.035 -1.502,0.007 -2.201,0.978 -2.28,2.365 -0.163,2.833 -0.31,5.67 -0.35,8.507 C -0.042,-9.469 0,-5.336 0,0"
             style="fill:#000000;fill-opacity:1;fill-rule:nonzero;stroke:none"
             id="path70" /></g><g
           id="g72"
           transform="translate(182.5048,83.1673)"><path
             d="m 0,0 c 0.002,4.973 -0.065,9.947 0.02,14.918 0.09,5.258 4.47,9.457 9.756,9.509 5.253,0.052 9.8,-4.051 10.084,-8.979 0.095,-1.643 -0.337,-2.472 -2.102,-2.268 -0.699,0.08 -1.413,0.011 -2.121,0.025 -0.812,0.015 -1.216,0.337 -1.366,1.248 -0.498,3.006 -2.183,4.497 -4.674,4.314 C 7.112,18.584 5.524,16.62 5.519,13.608 5.501,4.631 5.503,-4.346 5.514,-13.322 c 0.004,-3.143 1.404,-4.981 3.944,-5.261 2.579,-0.284 4.241,1.15 4.821,4.328 0.152,0.833 0.528,1.038 1.249,1.13 4.137,0.528 5.281,-0.964 3.756,-4.936 -1.598,-4.166 -6.456,-6.885 -10.937,-6.126 -4.819,0.818 -8.293,4.712 -8.339,9.462 C -0.039,-9.817 -0.002,-4.908 0,0"
             style="fill:#000000;fill-opacity:1;fill-rule:nonzero;stroke:none"
             id="path74" /></g><g
           id="g76"
           transform="translate(356.0565,106.7615)"><path
             d="M 0,0 C 2.637,0.001 5.273,-0.038 7.909,0.016 9.638,0.051 10.364,-0.803 10.417,-2.439 10.482,-4.419 9.8,-5.269 7.974,-5.43 7.718,-5.453 7.459,-5.437 7.202,-5.446 4.089,-5.566 3.255,-6.344 3.141,-9.551 2.98,-14.066 2.884,-18.585 2.822,-23.103 2.73,-29.818 2.695,-36.535 2.632,-43.251 c -0.005,-0.517 0.02,-1.045 -0.078,-1.546 -0.288,-1.469 -1.024,-2.569 -2.688,-2.476 -1.551,0.086 -2.257,1.127 -2.339,2.586 -0.14,2.513 -0.279,5.028 -0.314,7.545 -0.125,8.782 -0.205,17.565 -0.303,26.347 -0.004,0.388 -0.005,0.775 -0.018,1.163 -0.12,3.374 -0.911,4.143 -4.313,4.199 -2.517,0.042 -3.376,0.908 -3.201,3.201 0.111,1.453 0.802,2.248 2.327,2.236 C -5.53,-0.017 -2.766,-0.002 0,0"
             style="fill:#000000;fill-opacity:1;fill-rule:nonzero;stroke:none"
             id="path78" /></g><g
           id="g80"
           transform="translate(549.1952,61.8108)"><path
             d="m 0,0 c -1.086,1.328 -1.345,2.938 -1.544,4.568 0.367,2.97 -0.086,5.929 -0.127,8.892 -0.139,9.946 -0.168,19.891 0.266,29.831 0.109,2.506 1.437,3.559 3.393,2.788 C 3.362,45.538 3.595,44.375 3.605,43.074 3.658,36.486 3.7,29.897 3.793,23.31 3.86,18.596 3.93,13.88 4.133,9.17 4.293,5.435 5.063,4.776 8.834,4.567 9.668,4.521 10.502,4.457 11.336,4.439 12.834,4.407 13.796,3.766 13.938,2.184 14.071,0.683 13.45,-0.518 11.952,-0.651 7.951,-1.01 3.9,-1.71 0,0"
             style="fill:#000000;fill-opacity:1;fill-rule:nonzero;stroke:none"
             id="path82" /></g><g
           id="g84"
           transform="translate(241.1674,20.3294)"><path
             d="M 0,0 C 0.001,1.03 0.001,2.061 0,3.09 0,6.499 0,6.494 3.486,6.464 4.388,6.456 5.271,6.387 6.143,6.119 7.393,5.734 8.389,5.04 8.642,3.713 8.932,2.195 8.812,0.607 7.35,-0.244 5.979,-1.043 6.355,-1.713 7.082,-2.626 7.682,-3.378 8.232,-4.175 8.744,-4.99 9.045,-5.47 9.968,-6.012 9.251,-6.548 8.602,-7.033 7.633,-6.898 7.05,-6.064 6.35,-5.065 5.675,-4.047 4.974,-3.049 4.68,-2.63 4.377,-2.206 4.018,-1.846 3.621,-1.445 3.074,-1.42 2.577,-1.59 2.046,-1.772 2.106,-2.294 2.103,-2.739 2.096,-3.705 2.08,-4.671 2.104,-5.637 2.125,-6.481 1.709,-6.748 0.919,-6.742 0.092,-6.736 -0.004,-6.239 -0.002,-5.601 0.002,-3.733 0,-1.867 0,0"
             style="fill:#000000;fill-opacity:1;fill-rule:nonzero;stroke:none"
             id="path86" /></g><g
           id="g88"
           transform="translate(447.4139,14.4456)"><path
             d="m 0,0 c 0.087,-0.659 -0.237,-0.787 -0.666,-0.839 -0.829,-0.101 -1.471,0.246 -1.608,1.037 -0.411,2.35 -2.03,2.287 -3.871,2.303 -1.79,0.015 -3.145,-0.141 -3.51,-2.274 -0.172,-1.006 -1.092,-1.369 -1.949,-0.962 -0.875,0.414 -0.136,1.117 0.04,1.662 1.097,3.398 2.497,6.678 3.895,9.96 0.342,0.801 0.607,1.492 1.715,1.486 1.127,-0.005 1.35,-0.731 1.663,-1.534 1.266,-3.24 2.562,-6.468 3.845,-9.7 C -0.279,0.72 -0.117,0.3 0,0"
             style="fill:#000000;fill-opacity:1;fill-rule:nonzero;stroke:none"
             id="path90" /></g><g
           id="g92"
           transform="translate(214.7596,22.5872)"><path
             d="M 0,0 C 0,1.245 0.013,2.269 -0.004,3.292 -0.017,4.073 0.285,4.501 1.115,4.515 1.951,4.528 2.039,3.985 2.04,3.361 2.043,-0.384 2.041,-4.13 2.044,-7.875 2.045,-8.973 1.506,-9.399 0.646,-8.696 c -0.791,0.647 -1.221,0.399 -1.974,-0.054 -1.389,-0.836 -3.218,-0.311 -4.122,0.958 -1.199,1.685 -1.199,4.917 0,6.629 C -4.304,0.471 -2.993,0.784 0,0"
             style="fill:#000000;fill-opacity:1;fill-rule:nonzero;stroke:none"
             id="path94" /></g><g
           id="g96"
           transform="translate(579.3309,10.3626)"><path
             d="m 0,0 c -1.166,-0.046 -2.223,0.118 -3.138,0.834 -0.832,0.65 -1.114,1.576 -0.553,2.379 0.515,0.739 0.38,1.477 0.573,2.172 0.396,1.427 0.146,2.516 -0.371,3.824 -0.558,1.41 0.722,3.01 2.38,3.369 1.809,0.393 3.534,-0.461 5.33,-0.403 0.472,0.014 0.711,-0.545 0.32,-0.792 C 3.555,10.759 3.748,9.758 3.467,8.879 2.943,7.246 1.591,6.722 -0.015,6.695 -0.498,6.687 -1.25,6.905 -1.304,6.24 -1.364,5.479 -0.561,5.515 -0.014,5.446 0.686,5.358 1.396,5.358 2.093,5.261 3.129,5.115 4.179,4.902 4.437,3.647 4.7,2.359 4.159,1.415 3.078,0.712 2.112,0.082 1.06,-0.063 0,0"
             style="fill:#000000;fill-opacity:1;fill-rule:nonzero;stroke:none"
             id="path98" /></g><g
           id="g100"
           transform="translate(360.9501,10.3596)"><path
             d="m 0,0 c -1.045,-0.039 -2.052,0.069 -2.958,0.672 -0.702,0.466 -1.328,1.194 -0.963,1.913 0.577,1.137 0.515,2.376 0.876,3.437 0.37,1.089 0.188,1.624 -0.282,2.48 -0.954,1.736 0.285,3.751 2.408,4.122 C 0.773,12.92 2.369,12.097 4.049,12.211 4.39,12.234 4.785,11.759 4.577,11.623 3.153,10.694 3.925,8.813 2.813,7.763 1.894,6.892 0.815,6.667 -0.381,6.687 -0.808,6.694 -1.396,6.77 -1.377,6.123 -1.364,5.696 -0.877,5.565 -0.491,5.519 0.339,5.418 1.173,5.361 2.005,5.277 3.156,5.16 4.225,4.82 4.494,3.535 4.771,2.213 3.981,1.342 2.96,0.657 2.061,0.055 1.047,-0.057 0,0"
             style="fill:#000000;fill-opacity:1;fill-rule:nonzero;stroke:none"
             id="path102" /></g><g
           id="g104"
           transform="translate(426.035,10.3528)"><path
             d="m 0,0 c -0.994,-0.042 -2.057,0.122 -2.96,0.854 -0.793,0.641 -1.195,1.523 -0.568,2.359 0.548,0.729 0.382,1.479 0.578,2.166 0.406,1.418 0.116,2.512 -0.301,3.829 -0.542,1.715 0.779,3.169 2.713,3.448 C 1.085,12.89 2.611,12.094 4.228,12.227 4.56,12.254 4.992,11.812 4.796,11.675 3.339,10.657 4.17,8.57 2.784,7.534 1.846,6.831 0.813,6.655 -0.302,6.703 -0.709,6.721 -1.183,6.658 -1.198,6.204 -1.212,5.803 -0.768,5.587 -0.372,5.537 0.391,5.441 1.159,5.393 1.925,5.317 3.183,5.194 4.475,4.994 4.687,3.45 4.904,1.864 3.891,0.969 2.577,0.348 1.793,-0.023 0.958,-0.004 0,0"
             style="fill:#000000;fill-opacity:1;fill-rule:nonzero;stroke:none"
             id="path106" /></g><g
           id="g108"
           transform="translate(619.5848,22.2366)"><path
             d="M 0,0 C 3.12,1.147 4.464,0.971 5.565,-0.553 6.79,-2.246 6.688,-5.652 5.379,-7.337 4.396,-8.602 3.1,-8.881 1.591,-8.688 c -0.826,0.105 -1.581,0.552 -2.529,0.121 -0.749,-0.342 -1.089,0.338 -1.086,1.12 0.013,3.68 0.008,7.362 0.007,11.044 -10e-4,0.629 0.095,1.187 0.88,1.231 C -0.311,4.874 0.011,4.422 0.003,3.637 -0.008,2.484 0,1.331 0,0"
             style="fill:#000000;fill-opacity:1;fill-rule:nonzero;stroke:none"
             id="path110" /></g><g
           id="g112"
           transform="translate(467.1122,20.2669)"><path
             d="m 0,0 c 0.002,-1.808 -0.006,-3.614 0.007,-5.422 0.005,-0.742 -0.38,-1.601 -1.017,-1.134 -1.136,0.833 -1.923,0.213 -2.903,-0.082 -1.832,-0.55 -3.338,0.195 -4.054,1.996 -0.806,2.032 -0.779,4.072 0.522,5.903 1.112,1.567 2.702,1.862 4.465,1.27 0.719,-0.242 0.946,0.05 0.95,0.708 0.004,0.71 0.014,1.42 0.008,2.13 -0.007,0.759 0.03,1.482 1.071,1.43 C -0.057,6.755 0.002,6.11 0,5.421 -0.005,3.614 -0.002,1.807 0,0"
             style="fill:#000000;fill-opacity:1;fill-rule:nonzero;stroke:none"
             id="path114" /></g><g
           id="g116"
           transform="translate(337.7094,20.2219)"><path
             d="M 0,0 C 0,1.74 0.038,3.481 -0.015,5.22 -0.044,6.2 0.271,6.614 1.299,6.581 3.158,6.521 5.02,6.569 6.88,6.561 7.519,6.558 8.258,6.637 8.207,5.644 8.158,4.727 7.476,4.734 6.81,4.737 5.976,4.741 5.142,4.737 4.308,4.735 2.284,4.731 1.362,3.287 2.141,1.404 2.414,0.745 2.941,0.869 3.429,0.854 4.326,0.827 5.225,0.852 6.122,0.818 6.639,0.8 6.954,0.509 6.944,-0.042 6.933,-0.61 6.581,-0.827 6.068,-0.838 5.427,-0.852 4.771,-0.938 4.146,-0.838 2.36,-0.55 2,-1.376 2.046,-3.007 2.084,-4.386 2.36,-5.071 3.868,-4.895 4.754,-4.791 5.664,-4.846 6.56,-4.888 7.207,-4.918 8.157,-4.613 8.183,-5.701 8.212,-6.958 7.159,-6.589 6.47,-6.609 4.931,-6.655 3.385,-6.544 1.852,-6.647 0.457,-6.743 -0.142,-6.335 -0.028,-4.832 0.094,-3.23 0,-1.611 0,0"
             style="fill:#000000;fill-opacity:1;fill-rule:nonzero;stroke:none"
             id="path118" /></g><g
           id="g120"
           transform="translate(511.7587,20.2405)"><path
             d="M 0,0 C 0.001,1.742 0.021,3.485 -0.008,5.228 -0.021,6.039 0.091,6.587 1.115,6.559 3.105,6.505 5.099,6.541 7.091,6.545 7.642,6.546 8.145,6.488 8.174,5.771 8.203,5.056 7.872,4.706 7.136,4.719 6.043,4.737 4.942,4.634 3.86,4.739 2.356,4.885 2.045,4.224 2.047,2.833 2.049,1.396 2.334,0.599 3.945,0.815 4.514,0.892 5.101,0.825 5.679,0.827 6.27,0.83 6.9,0.876 6.932,0.028 6.97,-0.973 6.237,-0.866 5.595,-0.87 5.081,-0.873 4.558,-0.935 4.055,-0.86 2.374,-0.61 2.05,-1.414 2.041,-2.95 2.032,-4.495 2.514,-5.061 4.023,-4.914 4.979,-4.821 5.95,-4.901 6.914,-4.896 7.516,-4.894 8.136,-4.894 8.167,-5.717 8.204,-6.687 7.495,-6.642 6.834,-6.641 5.034,-6.638 3.233,-6.592 1.437,-6.657 0.363,-6.696 -0.065,-6.346 -0.02,-5.228 0.053,-3.488 0,-1.743 0,0"
             style="fill:#000000;fill-opacity:1;fill-rule:nonzero;stroke:none"
             id="path122" /></g><g
           id="g124"
           transform="translate(269.4696,16.7258)"><path
             d="M 0,0 C 0.001,1.679 -0.004,3.357 0.003,5.036 0.007,6.117 0.758,6.636 1.438,5.945 2.204,5.168 2.577,5.596 3.196,5.893 5.416,6.957 7.262,6.181 8.131,3.857 9.685,-0.291 7.212,-3.479 2.842,-2.91 2.239,-2.832 2.004,-2.915 2.003,-3.516 2.001,-4.097 1.994,-4.678 1.989,-5.259 1.984,-5.862 1.746,-6.24 1.084,-6.249 0.388,-6.259 -0.007,-5.979 -0.003,-5.229 0.005,-3.486 0,-1.743 0,0"
             style="fill:#000000;fill-opacity:1;fill-rule:nonzero;stroke:none"
             id="path126" /></g><g
           id="g128"
           transform="translate(180.6654,20.1174)"><path
             d="M 0,0 C -0.011,5.242 5.115,8.5 9.523,6.036 10.096,5.716 10.984,5.441 10.457,4.483 9.979,3.614 9.326,4.006 8.641,4.319 6.464,5.317 4.297,4.846 3.111,3.186 1.881,1.466 1.994,-1.812 3.335,-3.373 c 1.3,-1.512 3.489,-1.888 5.455,-0.864 0.648,0.337 1.334,0.885 1.819,0.026 0.565,-0.997 -0.452,-1.322 -1.06,-1.677 C 5.154,-8.455 0.012,-5.273 0,0"
             style="fill:#000000;fill-opacity:1;fill-rule:nonzero;stroke:none"
             id="path130" /></g><g
           id="g132"
           transform="translate(530.0634,20.2776)"><path
             d="M 0,0 C 0.002,1.805 0.003,3.608 0.002,5.412 0.001,6.089 0.032,6.761 0.937,6.794 1.94,6.832 2.05,6.145 2.027,5.367 2.018,5.046 2.049,4.722 2.024,4.401 1.909,2.911 1.8,1.773 4.042,2.611 6.06,3.365 7.745,2.047 7.954,-0.167 8.123,-1.956 8.017,-3.771 8.052,-5.573 8.064,-6.267 7.832,-6.652 7.077,-6.687 6.138,-6.729 6.061,-6.161 6.067,-5.447 6.081,-3.965 6.097,-2.482 6.06,-1.001 6.028,0.242 5.529,1.193 4.119,1.091 2.835,0.998 1.955,0.397 2.017,-1.116 2.074,-2.531 2.021,-3.951 2.031,-5.369 2.036,-6.074 1.949,-6.67 1.038,-6.674 0.166,-6.677 -0.016,-6.159 -0.008,-5.412 0.012,-3.608 -0.002,-1.804 0,0"
             style="fill:#000000;fill-opacity:1;fill-rule:nonzero;stroke:none"
             id="path134" /></g><g
           id="g136"
           transform="translate(669.246,18.3186)"><path
             d="M 0,0 C 0.019,-3.004 -1.717,-4.848 -4.544,-4.827 -7.307,-4.808 -9,-3.031 -9.028,-0.125 -9.057,2.858 -7.308,4.717 -4.478,4.71 -1.759,4.703 -0.018,2.872 0,0"
             style="fill:#000000;fill-opacity:1;fill-rule:nonzero;stroke:none"
             id="path138" /></g><g
           id="g140"
           transform="translate(550.245,18.3421)"><path
             d="M 0,0 C 0.034,2.963 1.8,4.747 4.647,4.696 7.303,4.649 9.065,2.746 9.067,-0.074 9.069,-3.002 7.27,-4.879 4.479,-4.859 1.651,-4.84 -0.034,-3.012 0,0"
             style="fill:#000000;fill-opacity:1;fill-rule:nonzero;stroke:none"
             id="path142" /></g><g
           id="g144"
           transform="translate(314.9047,18.2483)"><path
             d="m 0,0 c -0.009,-3.023 -1.695,-4.79 -4.551,-4.766 -2.791,0.024 -4.538,1.925 -4.481,4.877 0.057,2.866 1.789,4.668 4.495,4.681 C -1.709,4.805 0.008,2.99 0,0"
             style="fill:#000000;fill-opacity:1;fill-rule:nonzero;stroke:none"
             id="path146" /></g><g
           id="g148"
           transform="translate(632.1044,13.4866)"><path
             d="M 0,0 C -2.827,-0.076 -4.686,1.741 -4.742,4.637 -4.797,7.48 -3.084,9.445 -0.459,9.549 2.424,9.662 4.227,7.94 4.302,4.999 4.381,1.92 2.793,0.075 0,0"
             style="fill:#000000;fill-opacity:1;fill-rule:nonzero;stroke:none"
             id="path150" /></g><g
           id="g152"
           transform="translate(573.9012,18.2268)"><path
             d="M 0,0 C -0.02,-3.029 -1.722,-4.781 -4.6,-4.732 -7.294,-4.687 -9.038,-2.797 -9.02,0.057 -9.001,2.983 -7.155,4.86 -4.353,4.8 -1.615,4.742 0.019,2.94 0,0"
             style="fill:#000000;fill-opacity:1;fill-rule:nonzero;stroke:none"
             id="path154" /></g><g
           id="g156"
           transform="translate(395.9442,13.4768)"><path
             d="m 0,0 c -3.162,-0.021 -4.943,2.034 -4.761,5.343 0.153,2.778 2.352,4.563 5.13,4.178 C 1.451,9.371 2.328,8.869 2.902,7.946 3.451,7.064 3.976,6.054 3.47,5.046 3.005,4.121 1.967,4.603 1.176,4.533 0.475,4.473 -0.24,4.565 -0.941,4.505 -1.529,4.454 -2.408,4.848 -2.604,4.014 -2.789,3.228 -2.255,2.519 -1.6,2.061 -0.526,1.311 0.599,1.525 1.694,2.05 2.269,2.324 2.869,2.475 3.172,1.777 3.505,1.008 2.746,0.823 2.29,0.535 1.555,0.07 0.71,0.039 0,0"
             style="fill:#000000;fill-opacity:1;fill-rule:nonzero;stroke:none"
             id="path158" /></g><g
           id="g160"
           transform="translate(386.4091,13.4827)"><path
             d="m 0,0 c -3.316,-0.008 -5.198,2.201 -4.912,5.378 0.255,2.831 2.394,4.541 5.16,4.126 C 1.472,9.321 2.384,8.693 2.967,7.595 4.103,5.457 3.566,4.527 1.194,4.519 0.233,4.515 -0.728,4.494 -1.687,4.52 -2.9,4.553 -2.988,3.857 -2.561,3.034 -1.769,1.51 -0.466,1.317 1.052,1.826 1.715,2.049 2.64,2.854 2.98,1.719 3.296,0.667 2.094,0.499 1.375,0.222 0.851,0.021 0.245,0.035 0,0"
             style="fill:#000000;fill-opacity:1;fill-rule:nonzero;stroke:none"
             id="path162" /></g><g
           id="g164"
           transform="translate(347.576,18.2893)"><path
             d="M 0,0 C 0,1.16 0.008,2.321 -0.002,3.481 -0.01,4.402 0.58,5.047 1.268,4.506 2.144,3.815 2.652,4.155 3.44,4.479 5.769,5.437 7.784,4.202 7.977,1.684 c 0.131,-1.732 0.046,-3.48 0.065,-5.22 0.007,-0.645 -0.115,-1.136 -0.92,-1.166 -0.878,-0.034 -1.094,0.426 -1.081,1.198 0.024,1.483 0.016,2.966 0,4.448 C 6.028,2.198 5.569,3.151 4.147,3.069 2.838,2.994 1.995,2.363 2.064,0.857 2.123,-0.429 2.091,-1.721 2.068,-3.01 2.056,-3.743 2.303,-4.66 1.075,-4.695 -0.13,-4.73 -0.003,-3.869 -0.006,-3.095 -0.009,-2.063 -0.007,-1.031 -0.007,0 Z"
             style="fill:#000000;fill-opacity:1;fill-rule:nonzero;stroke:none"
             id="path166" /></g><g
           id="g168"
           transform="translate(232.1317,18.3342)"><path
             d="M 0,0 C 0.026,-2.984 -1.695,-4.84 -4.498,-4.848 -7.249,-4.854 -9.007,-3.08 -9.048,-0.253 -9.093,2.77 -7.43,4.646 -4.657,4.698 -1.835,4.752 -0.026,2.927 0,0"
             style="fill:#000000;fill-opacity:1;fill-rule:nonzero;stroke:none"
             id="path170" /></g><g
           id="g172"
           transform="translate(540.3876,18.3079)"><path
             d="M 0,0 C 0.003,1.158 0.004,2.317 0.002,3.477 0.001,4.235 0.424,5.015 1.084,4.513 2.105,3.738 2.798,4.261 3.684,4.553 5.838,5.264 7.581,4.229 7.857,1.938 8.08,0.096 7.993,-1.783 8.043,-3.646 8.063,-4.353 7.763,-4.722 7.018,-4.707 6.195,-4.69 5.908,-4.275 5.922,-3.483 5.95,-1.939 5.937,-0.394 5.92,1.151 5.908,2.239 5.542,3.121 4.281,3.058 3.055,2.996 1.981,2.619 1.994,1.051 2.006,-0.366 2.002,-1.782 1.992,-3.199 1.987,-3.892 2.141,-4.686 1.043,-4.717 -0.023,-4.747 -0.007,-4.025 -0.003,-3.284 0.003,-2.189 -0.002,-1.095 0,0"
             style="fill:#000000;fill-opacity:1;fill-rule:nonzero;stroke:none"
             id="path174" /></g><g
           id="g176"
           transform="translate(371.6874,18.4417)"><path
             d="m 0,0 c 0.003,1.159 0.003,2.318 0.003,3.478 0,0.87 0.588,1.345 1.2,0.858 C 2.07,3.646 2.64,4.026 3.43,4.338 5.635,5.208 7.562,4.2 7.87,1.871 8.122,-0.03 8.001,-1.981 8.035,-3.91 8.046,-4.549 7.688,-4.825 7.073,-4.849 6.371,-4.874 5.983,-4.594 5.985,-3.848 5.989,-2.303 6.014,-0.756 5.966,0.788 5.93,1.981 5.572,3.044 4.095,2.921 2.826,2.815 1.922,2.272 2.008,0.725 2.09,-0.752 2.016,-2.236 2.027,-3.718 2.033,-4.38 1.878,-4.828 1.088,-4.856 0.218,-4.888 -0.023,-4.448 -0.009,-3.671 0.015,-2.448 -0.002,-1.224 0,0"
             style="fill:#000000;fill-opacity:1;fill-rule:nonzero;stroke:none"
             id="path178" /></g><g
           id="g180"
           transform="translate(256.1102,13.4807)"><path
             d="M 0,0 C -3.334,-0.002 -5.079,2.061 -4.891,5.397 -4.741,8.072 -2.612,9.835 0.095,9.53 1.493,9.372 2.484,8.633 3.079,7.377 4.039,5.346 3.531,4.539 1.318,4.524 0.29,4.518 -0.737,4.51 -1.765,4.52 -2.967,4.529 -3.029,3.96 -2.559,3.047 -1.741,1.459 -0.445,1.368 1.052,1.82 1.726,2.023 2.648,2.848 2.995,1.723 3.326,0.65 2.091,0.519 1.379,0.232 0.858,0.023 0.249,0.037 0,0"
             style="fill:#000000;fill-opacity:1;fill-rule:nonzero;stroke:none"
             id="path182" /></g><g
           id="g184"
           transform="translate(412.5917,18.3264)"><path
             d="M 0,0 C 0,1.159 0.006,2.317 -0.002,3.477 -0.007,4.273 0.502,4.964 1.117,4.495 2.103,3.745 2.758,4.209 3.637,4.521 5.842,5.3 7.692,4.132 7.91,1.784 8.069,0.061 7.986,-1.687 8.017,-3.423 8.029,-4.115 7.981,-4.709 7.047,-4.734 6.092,-4.761 6.054,-4.16 6.056,-3.469 6.061,-1.988 6.09,-0.507 6.041,0.972 6,2.204 5.503,3.159 4.082,3.043 2.791,2.937 1.937,2.336 2.013,0.821 2.083,-0.592 2.014,-2.011 2.032,-3.426 2.041,-4.146 1.927,-4.707 1.033,-4.727 0.139,-4.747 -0.016,-4.207 -0.005,-3.476 0.011,-2.316 -0.001,-1.158 0,0"
             style="fill:#000000;fill-opacity:1;fill-rule:nonzero;stroke:none"
             id="path186" /></g><g
           id="g188"
           transform="translate(503.663,19.3294)"><path
             d="M 0,0 C 0.001,1.226 -0.109,2.463 0.028,3.673 0.21,5.28 -0.47,5.746 -1.925,5.548 -2.366,5.487 -2.823,5.546 -3.272,5.549 c -0.624,0.004 -0.93,0.311 -0.95,0.945 -0.02,0.652 0.287,0.953 0.915,0.954 2.825,0.003 5.65,-0.005 8.475,0.013 C 5.814,7.466 6.103,7.206 6.114,6.557 6.127,5.826 5.81,5.594 5.082,5.519 2.068,5.208 2.071,5.179 2.071,2.034 2.071,0.035 2.085,-1.964 2.065,-3.963 2.058,-4.754 2.342,-5.747 0.967,-5.73 -0.331,-5.715 0.031,-4.757 0.011,-4.062 -0.028,-2.709 -0.001,-1.354 0,0"
             style="fill:#000000;fill-opacity:1;fill-rule:nonzero;stroke:none"
             id="path190" /></g><g
           id="g192"
           transform="translate(200.1996,17.1682)"><path
             d="m 0,0 c 0.002,-0.708 0.004,-1.417 0.002,-2.126 -0.003,-1.252 -0.309,-2.008 -1.614,-0.921 -0.485,0.402 -0.831,0.085 -1.201,-0.141 -0.811,-0.495 -1.697,-0.542 -2.604,-0.467 -1.083,0.09 -1.792,0.679 -2.058,1.728 -0.285,1.125 0.078,2.044 1.07,2.655 0.887,0.546 1.863,0.846 2.912,0.898 0.795,0.039 1.628,0.052 1.415,1.252 C -2.256,3.886 -2.909,4.323 -3.862,4.213 -4.42,4.148 -4.975,3.922 -5.493,3.685 -6.036,3.437 -6.52,3.395 -6.811,3.962 c -0.325,0.633 0.2,0.93 0.637,1.192 1.407,0.848 2.929,1.065 4.415,0.377 1.381,-0.638 1.74,-1.972 1.755,-3.404 C 0.003,1.418 -0.003,0.709 0,0"
             style="fill:#000000;fill-opacity:1;fill-rule:nonzero;stroke:none"
             id="path194" /></g><g
           id="g196"
           transform="translate(297.682,17.2551)"><path
             d="m 0,0 c 0.002,-0.645 0,-1.29 0.002,-1.935 0.004,-1.272 -0.038,-2.452 -1.737,-1.147 -0.471,0.361 -0.84,-0.079 -1.212,-0.278 -0.71,-0.381 -1.47,-0.443 -2.244,-0.41 -1.141,0.049 -1.976,0.554 -2.275,1.717 -0.312,1.217 0.099,2.153 1.187,2.777 0.908,0.52 1.891,0.779 2.935,0.835 0.651,0.035 1.361,0.04 1.307,0.997 C -2.086,3.44 -2.538,4.004 -3.438,4.123 -4.097,4.21 -4.712,4.015 -5.29,3.71 -5.82,3.431 -6.407,3.099 -6.787,3.811 -7.246,4.669 -6.424,4.925 -5.913,5.221 -2.91,6.96 -0.094,5.385 -0.004,1.934 0.012,1.29 -0.002,0.645 0,0"
             style="fill:#000000;fill-opacity:1;fill-rule:nonzero;stroke:none"
             id="path198" /></g><g
           id="g200"
           transform="translate(651.9833,17.176)"><path
             d="m 0,0 c 0,-0.644 0.005,-1.286 -0.001,-1.93 -0.009,-1.141 0.019,-2.376 -1.62,-1.135 -0.496,0.376 -0.833,0.072 -1.205,-0.149 -0.878,-0.521 -1.83,-0.557 -2.792,-0.405 -0.979,0.154 -1.603,0.75 -1.859,1.717 -0.259,0.979 0.041,1.789 0.817,2.398 0.937,0.735 2.04,1.03 3.215,1.122 0.673,0.054 1.559,-0.069 1.442,1.037 C -2.114,3.697 -2.726,4.33 -3.812,4.199 -4.431,4.125 -5.035,3.857 -5.623,3.62 -6.116,3.421 -6.506,3.47 -6.769,3.942 c -0.3,0.539 0.091,0.844 0.463,1.095 1.367,0.926 2.879,1.143 4.397,0.567 C -0.466,5.055 -0.056,3.75 -0.012,2.315 0.013,1.545 -0.007,0.772 -0.007,0 Z"
             style="fill:#000000;fill-opacity:1;fill-rule:nonzero;stroke:none"
             id="path202" /></g><g
           id="g204"
           transform="translate(448.788,18.3479)"><path
             d="M 0,0 C -0.001,0.84 -0.005,1.679 0,2.519 0.009,3.884 -0.157,5.472 1.964,3.941 2.426,3.608 2.776,4.146 3.167,4.31 5.819,5.419 7.861,4.209 8.028,1.357 8.118,-0.187 8.064,-1.74 8.063,-3.29 8.063,-3.991 8.194,-4.763 7.079,-4.767 6.045,-4.77 5.985,-4.137 5.996,-3.354 6.018,-1.869 6.011,-0.384 5.993,1.102 5.979,2.198 5.573,3.072 4.337,3.021 3.101,2.97 2.043,2.545 2.052,0.988 2.06,-0.497 2.047,-1.982 2.05,-3.467 2.052,-4.168 1.975,-4.761 1.04,-4.749 0.154,-4.739 -0.016,-4.225 -0.005,-3.486 0.013,-2.324 0,-1.162 0,0"
             style="fill:#000000;fill-opacity:1;fill-rule:nonzero;stroke:none"
             id="path206" /></g><g
           id="g208"
           transform="translate(81.1884,102.4622)"><path
             d="M 0,0 C -2.556,-1.824 -2.232,0.724 -2.826,1.878 -3.124,3.871 -3.795,5.815 -3.591,7.873 -2.143,5.364 -0.961,2.733 0,0"
             style="fill:#c42a2d;fill-opacity:1;fill-rule:nonzero;stroke:none"
             id="path210" /></g><g
           id="g212"
           transform="translate(599.4901,20.3264)"><path
             d="M 0,0 C 0.001,1.741 0.029,3.483 -0.012,5.225 -0.033,6.139 0.321,6.49 1.231,6.481 2.172,6.471 2.235,5.903 2.233,5.201 2.228,2.428 2.29,-0.348 2.206,-3.118 2.166,-4.449 2.554,-5.029 3.939,-4.896 4.894,-4.803 5.865,-4.864 6.826,-4.908 7.434,-4.937 7.747,-5.309 7.7,-5.938 7.658,-6.507 7.27,-6.713 6.782,-6.717 4.856,-6.734 2.93,-6.732 1.004,-6.726 0.13,-6.722 -0.015,-6.149 -0.007,-5.418 0.012,-3.612 -0.001,-1.806 0,0"
             style="fill:#000000;fill-opacity:1;fill-rule:nonzero;stroke:none"
             id="path214" /></g><g
           id="g216"
           transform="translate(615.4393,17.3528)"><path
             d="m 0,0 c 0.002,-0.58 0.021,-1.16 -0.001,-1.738 -0.044,-1.193 0.34,-2.962 -1.822,-1.4 -0.5,0.363 -0.806,-0.184 -1.185,-0.351 -1.046,-0.462 -2.137,-0.568 -3.182,-0.144 -1.613,0.654 -1.867,2.862 -0.471,3.967 0.93,0.736 2.043,1.022 3.223,1.115 0.649,0.05 1.587,-0.121 1.457,1.009 -0.105,0.91 -0.604,1.545 -1.626,1.583 C -4.273,4.065 -4.865,3.84 -5.443,3.548 -5.936,3.3 -6.452,3.134 -6.761,3.762 -7.064,4.38 -6.603,4.71 -6.148,4.979 -4.736,5.815 -3.208,6.046 -1.734,5.337 -0.391,4.689 0.049,3.396 0.002,1.932 -0.019,1.289 -0.002,0.645 0,0"
             style="fill:#000000;fill-opacity:1;fill-rule:nonzero;stroke:none"
             id="path218" /></g><g
           id="g220"
           transform="translate(588.9813,17.0715)"><path
             d="M 0,0 C 1.187,1.422 1.432,2.987 2.091,4.348 2.341,4.864 2.428,5.51 3.033,5.724 3.367,5.842 3.821,5.862 4.137,5.728 4.622,5.521 4.373,5.086 4.225,4.739 2.734,1.253 1.235,-2.229 -0.248,-5.72 c -0.344,-0.809 -1.017,-1.115 -1.699,-0.754 -0.739,0.391 -0.178,1.078 0.102,1.49 1.043,1.534 0.778,2.958 -0.029,4.499 -0.802,1.531 -1.433,3.155 -2.094,4.756 -0.183,0.444 -1,0.971 -0.122,1.421 0.751,0.385 1.521,0.267 1.917,-0.644 C -1.479,3.458 -0.801,1.863 0,0"
             style="fill:#000000;fill-opacity:1;fill-rule:nonzero;stroke:none"
             id="path222" /></g><g
           id="g224"
           transform="translate(324.7845,22.1858)"><path
             d="m 0,0 c 1.092,-1.45 1.314,-3.329 2.414,-4.983 1.178,1.263 1.357,2.905 2.051,4.277 0.259,0.511 0.337,1.168 0.969,1.35 C 5.777,0.742 6.231,0.747 6.542,0.598 7.03,0.363 6.718,-0.06 6.574,-0.396 5.081,-3.886 3.583,-7.374 2.084,-10.861 c -0.342,-0.795 -1.026,-1.112 -1.719,-0.726 -0.77,0.43 -0.105,1.062 0.154,1.477 0.954,1.529 0.81,2.938 -0.01,4.504 -0.86,1.639 -1.466,3.414 -2.182,5.129 -0.214,0.367 -0.226,0.73 0.193,0.919 C -0.889,0.711 -0.427,0.377 0,0"
             style="fill:#000000;fill-opacity:1;fill-rule:nonzero;stroke:none"
             id="path226" /></g><g
           id="g228"
           transform="translate(679.1298,22.1878)"><path
             d="m 0,0 c 0.764,-1.623 1.527,-3.246 2.356,-5.008 1.203,1.247 1.413,2.883 2.094,4.267 0.257,0.52 0.343,1.159 0.968,1.349 C 5.759,0.712 6.213,0.728 6.521,0.581 7.014,0.348 6.697,-0.076 6.554,-0.412 5.074,-3.876 3.588,-7.336 2.111,-10.8 1.775,-11.586 1.13,-11.973 0.418,-11.606 c -0.934,0.479 -0.142,1.174 0.135,1.606 0.904,1.414 0.798,2.689 0.034,4.152 -0.889,1.704 -1.528,3.539 -2.276,5.317 C -1.637,0.752 -1.342,0.844 0,0"
             style="fill:#000000;fill-opacity:1;fill-rule:nonzero;stroke:none"
             id="path230" /></g><g
           id="g232"
           transform="translate(264.3524,23.053)"><path
             d="M 0,0 C 0.296,-0.025 0.623,-0.022 0.936,-0.086 1.742,-0.251 2.907,-0.403 2.722,-1.39 2.498,-2.58 1.496,-1.777 0.825,-1.61 c -0.9,0.222 -1.835,0.176 -2.107,-0.778 -0.288,-1.008 0.716,-1.184 1.435,-1.443 0.484,-0.174 0.976,-0.336 1.442,-0.552 0.939,-0.433 1.587,-1.091 1.556,-2.223 -0.031,-1.125 -0.483,-2.039 -1.494,-2.53 -1.412,-0.686 -2.874,-0.6 -4.294,0.02 -0.469,0.205 -0.977,0.504 -0.619,1.168 0.257,0.477 0.683,0.541 1.157,0.324 0.292,-0.135 0.571,-0.304 0.873,-0.412 0.946,-0.338 1.895,-0.273 2.316,0.716 0.491,1.152 -0.552,1.365 -1.322,1.668 -0.239,0.094 -0.469,0.22 -0.716,0.288 -1.523,0.414 -2.653,1.223 -2.352,2.984 0.302,1.769 1.646,2.325 3.3,2.38"
             style="fill:#000000;fill-opacity:1;fill-rule:nonzero;stroke:none"
             id="path234" /></g><g
           id="g236"
           transform="translate(522.9335,18.3167)"><path
             d="M 0,0 C -0.029,-2.706 1.347,-3.698 3.931,-2.798 4.449,-2.617 4.93,-2.389 5.258,-3.009 5.602,-3.658 5.065,-3.931 4.646,-4.217 2.244,-5.849 -1.09,-4.573 -1.831,-1.739 -2.333,0.18 -2.186,2.005 -0.789,3.512 0.435,4.832 2.054,4.953 3.682,4.557 4.346,4.396 5.455,4.22 5.144,3.168 4.835,2.128 4.007,2.819 3.371,2.976 1.293,3.488 0.026,2.362 0,0"
             style="fill:#000000;fill-opacity:1;fill-rule:nonzero;stroke:none"
             id="path238" /></g><g
           id="g240"
           transform="translate(303.0365,13.4768)"><path
             d="m 0,0 c -1.732,0.023 -2.563,0.807 -2.61,2.367 -0.033,1.093 0.009,2.189 -0.023,3.281 -0.027,0.909 0.324,1.96 -1.039,2.353 -0.482,0.139 -0.592,0.846 -0.032,1.021 1.171,0.369 1.337,1.223 1.413,2.229 0.041,0.555 0.308,1.025 0.929,1.041 0.785,0.02 0.738,-0.635 0.675,-1.109 C -0.874,9.763 -0.364,9.126 1.104,9.318 1.525,9.374 1.843,9.096 1.878,8.644 1.924,8.074 1.566,7.755 1.06,7.832 -0.742,8.106 -0.738,6.975 -0.678,5.72 -0.636,4.82 -0.661,3.918 -0.67,3.017 -0.677,2.38 -0.534,1.855 0.198,1.741 0.823,1.645 1.879,2.096 1.82,1.013 1.759,-0.131 0.563,0.222 0,0"
             style="fill:#000000;fill-opacity:1;fill-rule:nonzero;stroke:none"
             id="path242" /></g><g
           id="g244"
           transform="translate(656.7782,13.4798)"><path
             d="m 0,0 c -1.459,0.037 -2.262,0.813 -2.36,2.253 -0.072,1.026 -0.025,2.061 -0.031,3.093 -0.002,0.386 -0.128,0.83 0.017,1.15 0.62,1.378 -2.088,1.247 -1.174,2.347 0.631,0.759 1.591,1.159 1.524,2.381 -0.031,0.551 0.258,1.036 0.901,1.032 0.725,-0.005 0.789,-0.582 0.729,-1.105 C -0.543,9.837 -0.062,9.21 1.313,9.329 1.807,9.372 2.2,9.086 2.163,8.517 2.126,7.947 1.696,7.75 1.211,7.803 -0.307,7.968 -0.458,7.062 -0.392,5.884 -0.337,4.92 -0.381,3.951 -0.375,2.984 -0.371,2.337 -0.134,1.738 0.564,1.771 1.349,1.808 2.246,1.709 2.069,0.893 1.904,0.131 0.847,-0.02 0,0"
             style="fill:#000000;fill-opacity:1;fill-rule:nonzero;stroke:none"
             id="path246" /></g><g
           id="g248"
           transform="translate(401.2567,18.303)"><path
             d="M 0,0 C 0.003,1.16 -0.02,2.321 0.009,3.48 0.04,4.709 0.857,5.07 1.61,4.316 2.341,3.584 2.605,3.969 3.131,4.361 3.423,4.579 3.83,4.685 4.2,4.741 4.794,4.833 5.429,4.81 5.556,4.044 5.675,3.32 5.441,2.741 4.565,2.746 2.562,2.757 2.106,1.482 2.114,-0.194 2.119,-1.289 2.106,-2.385 2.116,-3.48 2.122,-4.209 1.967,-4.74 1.063,-4.725 0.198,-4.71 -0.02,-4.233 -0.008,-3.479 0.011,-2.32 -0.003,-1.159 0,0"
             style="fill:#000000;fill-opacity:1;fill-rule:nonzero;stroke:none"
             id="path250" /></g><g
           id="g252"
           transform="translate(679.1298,22.1878)"><path
             d="m 0,0 c -0.67,0.168 -1.471,0.753 -1.689,-0.531 -0.104,0.074 -0.201,0.199 -0.312,0.215 -1.461,0.198 -4.013,-1.782 -4.075,-3.202 -0.053,-1.223 -0.022,-2.45 -0.017,-3.675 0.004,-0.747 0.011,-1.449 -1.053,-1.428 -0.925,0.017 -0.993,0.615 -0.992,1.309 0.003,2.257 0.002,4.514 0.002,6.772 10e-4,1.275 0.538,1.72 1.645,0.95 0.394,-0.273 0.613,-0.62 1.093,-0.169 1.491,1.402 3.269,-0.127 4.865,0.437 C -0.289,0.764 -0.008,0.37 0,0"
             style="fill:#000000;fill-opacity:1;fill-rule:nonzero;stroke:none"
             id="path254" /></g><g
           id="g256"
           transform="translate(324.7845,22.1858)"><path
             d="m 0,0 c -0.627,0.088 -1.446,0.854 -1.673,-0.477 -4.089,-1.017 -4.072,-1.09 -4.2,-5.14 -0.031,-0.987 0.976,-2.89 -1.007,-2.872 -1.808,0.016 -0.821,1.822 -0.916,2.799 -0.168,1.726 -0.049,3.481 -0.044,5.224 0.002,0.529 0.212,1.388 0.685,1.106 2.015,-1.206 3.863,0.867 5.823,0.131 C -0.818,0.58 -0.149,0.792 0,0"
             style="fill:#000000;fill-opacity:1;fill-rule:nonzero;stroke:none"
             id="path258" /></g><g
           id="g260"
           transform="translate(202.2855,18.3372)"><path
             d="M 0,0 C 0.002,1.157 0.008,2.314 0,3.472 -0.006,4.264 0.515,4.987 1.099,4.47 2.175,3.517 2.843,4.224 3.735,4.58 4.354,4.829 5.234,4.984 5.443,3.988 5.628,3.109 5.115,2.737 4.225,2.712 2.596,2.664 2.047,1.604 2.031,0.139 2.017,-1.083 2.013,-2.305 2.03,-3.526 2.04,-4.25 1.93,-4.785 1.006,-4.754 0.11,-4.724 -0.017,-4.192 -0.007,-3.472 0.01,-2.314 -0.002,-1.157 0,0"
             style="fill:#000000;fill-opacity:1;fill-rule:nonzero;stroke:none"
             id="path262" /></g><g
           id="g264"
           transform="translate(285.2601,22.8987)"><path
             d="M 0,0 C 0.939,-1.506 1.925,-0.06 2.967,0.119 3.552,0.22 4.206,0.182 4.331,-0.567 4.452,-1.293 4.15,-1.836 3.305,-1.848 1.293,-1.874 0.912,-3.173 0.953,-4.837 0.979,-5.928 0.942,-7.021 0.962,-8.111 0.977,-8.856 0.803,-9.352 -0.092,-9.317 c -0.74,0.028 -1.008,0.379 -1.004,1.082 0.014,2.44 0.007,4.88 0.012,7.32 C -1.083,-0.306 -0.829,0.063 0,0"
             style="fill:#000000;fill-opacity:1;fill-rule:nonzero;stroke:none"
             id="path266" /></g><g
           id="g268"
           transform="translate(638.1288,18.2385)"><path
             d="M 0,0 C 0,1.221 0.004,2.442 -0.001,3.663 -0.004,4.39 0.632,5.013 1.013,4.616 2.155,3.427 2.949,4.472 3.911,4.737 4.482,4.895 5.284,5.05 5.486,4.156 5.678,3.311 5.309,2.816 4.367,2.813 2.601,2.806 2.094,1.668 2.079,0.136 2.068,-1.085 2.066,-2.307 2.076,-3.527 2.082,-4.192 1.915,-4.646 1.122,-4.644 0.31,-4.642 -0.032,-4.279 -0.014,-3.471 0.013,-2.314 -0.007,-1.157 -0.007,0 Z"
             style="fill:#000000;fill-opacity:1;fill-rule:nonzero;stroke:none"
             id="path270" /></g><g
           id="g272"
           transform="translate(367.2743,18.4456)"><path
             d="M 0,0 C 0.001,1.158 0.008,2.316 -0.001,3.474 -0.007,4.202 0.351,4.503 1.06,4.518 1.788,4.533 2.126,4.204 2.127,3.49 2.129,1.046 2.128,-1.399 2.133,-3.844 2.135,-4.56 1.81,-4.889 1.077,-4.875 0.379,-4.863 -0.009,-4.604 -0.003,-3.86 0.006,-2.573 -0.001,-1.287 0,0"
             style="fill:#000000;fill-opacity:1;fill-rule:nonzero;stroke:none"
             id="path274" /></g><g
           id="g276"
           transform="translate(562.4491,13.6214)"><path
             d="M 0,0 C -0.252,0 -0.503,0 -0.754,0.001 -1.025,0.179 -1.3,0.38 -1.297,0.736 -1.269,4.884 -1.549,9.035 -1.15,13.178 -0.163,13.519 0.606,13.593 0.593,12.137 0.559,8.531 0.579,4.925 0.584,1.319 0.585,0.782 0.545,0.283 0,0"
             style="fill:#000000;fill-opacity:1;fill-rule:nonzero;stroke:none"
             id="path278" /></g><g
           id="g280"
           transform="translate(281.8827,18.0764)"><path
             d="m 0,0 c 0.001,-1.097 -0.014,-2.193 0.006,-3.29 0.014,-0.751 -0.166,-1.248 -1.065,-1.215 -0.753,0.026 -1.006,0.403 -1.004,1.097 0.008,2.387 0.009,4.774 0,7.162 -0.002,0.681 0.223,1.095 0.981,1.128 C -0.199,4.922 0.016,4.441 0.004,3.679 -0.015,2.452 -0.001,1.227 0,0"
             style="fill:#000000;fill-opacity:1;fill-rule:nonzero;stroke:none"
             id="path282" /></g><g
           id="g284"
           transform="translate(221.2806,18.4241)"><path
             d="m 0,0 c 0.001,-1.222 -0.017,-2.444 0.008,-3.666 0.016,-0.781 -0.236,-1.204 -1.099,-1.18 -0.807,0.023 -0.925,0.486 -0.922,1.139 0.012,2.38 0.013,4.76 0.002,7.14 -0.004,0.683 0.205,1.097 0.975,1.095 C -0.303,4.526 0.007,4.187 0.001,3.474 -0.009,2.315 -0.001,1.158 0,0"
             style="fill:#000000;fill-opacity:1;fill-rule:nonzero;stroke:none"
             id="path286" /></g><g
           id="g288"
           transform="translate(410.3622,18.1809)"><path
             d="m 0,0 c 0.002,-1.094 -0.012,-2.188 0.006,-3.28 0.012,-0.718 -0.11,-1.27 -0.998,-1.308 -0.857,-0.036 -1.115,0.4 -1.111,1.178 0.016,2.315 0.015,4.631 0.001,6.947 C -2.106,4.292 -1.89,4.782 -1.025,4.76 -0.155,4.737 0.016,4.205 0.004,3.473 -0.014,2.315 -0.001,1.157 0,0"
             style="fill:#000000;fill-opacity:1;fill-rule:nonzero;stroke:none"
             id="path290" /></g><g
           id="g292"
           transform="translate(85.725,116.6702)"><path
             d="m 0,0 c -0.393,-3.038 -0.785,-6.076 -1.178,-9.112 -0.453,-1.054 -0.593,-2.18 -0.67,-3.304 -0.068,-0.98 -0.451,-1.541 -1.489,-1.494 1.049,2.182 0.778,4.63 1.386,6.907 C -1.325,-4.661 -0.96,-2.248 0,0"
             style="fill:#c52529;fill-opacity:1;fill-rule:nonzero;stroke:none"
             id="path294" /></g><g
           id="g296"
           transform="translate(236.1298,18.2571)"><path
             d="m 0,0 c -0.256,0 -0.514,-0.021 -0.767,0.004 -0.646,0.062 -1.587,-0.254 -1.569,0.858 0.017,1.124 0.975,0.745 1.605,0.802 0.571,0.05 1.15,0.025 1.726,0.007 C 1.551,1.653 2.26,1.779 2.295,0.931 2.333,0.001 1.629,-0.01 0.959,-0.001 0.64,0.003 0.32,0 0,0"
             style="fill:#000000;fill-opacity:1;fill-rule:nonzero;stroke:none"
             id="path298" /></g><g
           id="g300"
           transform="translate(562.4491,13.6214)"><path
             d="m 0,0 c 0.479,0.524 0.41,1.173 0.409,1.809 -0.002,3.316 -0.048,6.633 0.022,9.948 0.026,1.241 -0.476,1.597 -1.581,1.421 0.993,0.884 1.887,0.752 1.929,-0.616 C 0.897,8.637 0.83,4.706 0.816,0.778 0.814,0.293 0.627,-0.117 0,0"
             style="fill:#000000;fill-opacity:1;fill-rule:nonzero;stroke:none"
             id="path302" /></g><g
           id="g304"
           transform="translate(282.2577,25.6272)"><path
             d="m 0,0 c -0.134,-0.754 -0.597,-1.279 -1.377,-1.257 -0.76,0.024 -1.316,0.497 -1.306,1.334 0.01,0.841 0.532,1.264 1.345,1.249 C -0.525,1.312 -0.072,0.858 0,0"
             style="fill:#000000;fill-opacity:1;fill-rule:nonzero;stroke:none"
             id="path306" /></g><g
           id="g308"
           transform="translate(220.37,26.9417)"><path
             d="M 0,0 C 0.838,-0.069 1.315,-0.559 1.239,-1.38 1.174,-2.085 0.652,-2.556 -0.062,-2.555 -0.873,-2.554 -1.424,-2.042 -1.398,-1.23 -1.374,-0.438 -0.883,0.061 0,0"
             style="fill:#000000;fill-opacity:1;fill-rule:nonzero;stroke:none"
             id="path310" /></g><g
           id="g312"
           transform="translate(369.7421,25.6731)"><path
             d="m 0,0 c -0.103,-0.762 -0.571,-1.301 -1.358,-1.29 -0.77,0.012 -1.327,0.478 -1.298,1.352 0.024,0.759 0.452,1.185 1.21,1.207 C -0.626,1.292 -0.123,0.891 0,0"
             style="fill:#000000;fill-opacity:1;fill-rule:nonzero;stroke:none"
             id="path314" /></g><g
           id="g316"
           transform="translate(410.6337,25.6174)"><path
             d="m 0,0 c -0.101,-0.774 -0.604,-1.25 -1.387,-1.211 -0.781,0.039 -1.286,0.557 -1.23,1.391 0.05,0.74 0.523,1.136 1.267,1.134 C -0.527,1.312 -0.05,0.905 0,0"
             style="fill:#000000;fill-opacity:1;fill-rule:nonzero;stroke:none"
             id="path318" /></g><g
           id="g320"
           transform="translate(561.2987,26.8001)"><path
             d="m 0,0 c 0.008,-3.718 0.012,-7.436 0.027,-11.153 0.003,-0.694 -0.149,-1.423 0.369,-2.025 -0.653,-0.083 -0.746,0.389 -0.746,0.842 -0.002,3.966 0.013,7.932 0.041,11.898 C -0.308,-0.292 -0.107,-0.146 0,0"
             style="fill:#000000;fill-opacity:1;fill-rule:nonzero;stroke:none"
             id="path322" /></g><g
           id="g324"
           transform="translate(77.3651,87.1697)"><path
             d="m 0,0 c 3.709,-1.262 3.569,-1.136 6.253,1.879 3.586,4.028 7.786,7.211 13.35,7.996 0.558,0.227 1.145,0.136 1.711,0.101 0.458,-0.029 1.192,0.332 1.321,-0.351 C 22.762,8.95 22.058,8.683 21.519,8.505 19.468,7.831 17.808,6.501 16.033,5.347 13.144,3.467 10.867,0.926 8.432,-1.453 7.492,-2.372 7.661,-3.077 8.61,-3.827 c 1.817,-1.438 3.518,-3 4.89,-4.896 0.917,-2.714 1.123,-5.531 1.2,-8.362 0.017,-0.635 0.011,-1.3 -0.51,-1.799 -0.453,-4.928 -1.377,-9.696 -4.695,-13.623 -1.49,-1.764 -3.44,-3.05 -4.827,-4.957 -2.712,-3.733 -4.223,-7.853 -4.833,-12.412 -0.625,-4.669 -0.202,-9.235 0.771,-13.792 0.091,-0.427 0.012,-0.891 0.012,-1.498 -1.042,0.39 -1.55,1.104 -1.927,1.994 -0.755,1.782 -1.396,3.594 -1.706,5.517 -1.543,9.563 0.601,18.167 6.982,25.47 1.603,1.835 3.585,3.355 4.448,5.707 1.638,4.465 2.453,9.059 1.299,13.789 C 8.782,-8.87 5.959,-6.64 2.706,-4.952 1.53,-4.342 0.451,-3.112 -1.149,-3.661 -0.766,-2.439 -0.383,-1.22 0,0"
             style="fill:#e74551;fill-opacity:1;fill-rule:nonzero;stroke:none"
             id="path326" /></g><g
           id="g328"
           transform="translate(91.5555,68.2859)"><path
             d="m 0,0 c -0.034,3.521 -0.274,7.02 -1.21,10.436 0.552,3.095 2.586,5.289 4.715,7.298 4.478,4.225 8.751,3.949 13.598,-0.637 0.128,1.418 -1.099,2.8 -0.134,4.258 0.805,-1.228 1.169,-2.701 1.035,-4.036 C 17.715,14.432 18.819,11.9 19.525,9.259 20.32,6.29 20.521,3.284 20.175,0.241 19.8,-3.055 18.335,-5.783 15.76,-7.859 15.126,-8.37 14.59,-8.829 14.668,-9.712 13.792,-7.974 11.973,-7.819 10.442,-7.2 6.427,-5.577 3,-3.104 0,0"
             style="fill:#a01f2a;fill-opacity:1;fill-rule:nonzero;stroke:none"
             id="path330" /></g><g
           id="g332"
           transform="translate(108.5248,89.6409)"><path
             d="m 0,0 c -0.154,-1.873 1.02,-3.589 0.636,-5.703 -1.178,1.129 -2.049,2.351 -3.342,3.194 -4.407,2.869 -8.502,0.733 -11.26,-2.229 -1.73,-1.858 -2.911,-4.051 -4.213,-6.181 -1.804,1.529 -3.306,3.394 -5.267,4.752 -0.954,0.662 -0.903,1.288 -0.073,2.157 3.42,3.578 7.01,6.938 11.342,9.387 1.079,0.611 2.251,1.056 3.35,1.881 -0.911,0.048 -1.821,0.096 -2.731,0.145 1.723,0.365 3.481,0.998 4.83,-0.853 C -6.445,6.161 -5.944,6.147 -5.484,6.158 -2.707,4.958 -0.729,3.04 0,0"
             style="fill:#c52328;fill-opacity:1;fill-rule:nonzero;stroke:none"
             id="path334" /></g><g
           id="g336"
           transform="translate(118.5106,47.8284)"><path
             d="M 0,0 C -2.416,-2.892 -4.822,-5.79 -7.254,-8.668 -7.703,-9.197 -8.255,-9.638 -8.76,-10.119 -7.775,-3.464 -9.567,2.83 -11.25,9.139 -7.29,7.12 -3.858,4.295 -0.177,1.852 0.703,1.268 0.11,0.632 0,0"
             style="fill:#fbfbfc;fill-opacity:1;fill-rule:nonzero;stroke:none"
             id="path338" /></g><g
           id="g340"
           transform="translate(632.9725,75.9925)"><path
             d="M 0,0 C 0,2.061 -0.034,4.123 0.011,6.184 0.045,7.748 0.941,8.464 2.472,8.559 5.614,8.755 8.642,7.699 8.448,3.158 8.324,0.261 8.381,-2.646 8.401,-5.548 8.427,-9.073 5.259,-10.559 1.937,-9.813 1.104,-9.626 0.822,-8.826 0.586,-8.063 -0.233,-5.425 0.079,-2.691 0,0"
             style="fill:#fdfdfc;fill-opacity:1;fill-rule:nonzero;stroke:none"
             id="path342" /></g><g
           id="g344"
           transform="translate(632.8036,96.8181)"><path
             d="M 0,0 C 0,0.708 -0.022,1.416 0.004,2.122 0.135,5.612 0.457,6.023 3.041,6.057 6.613,6.104 8.402,4.78 8.542,1.87 8.621,0.204 8.632,-1.479 8.505,-3.141 8.304,-5.759 6.496,-6.876 2.951,-6.719 0.765,-6.623 0.15,-5.861 0.071,-3.086 0.042,-2.058 0.066,-1.029 0.066,0 Z"
             style="fill:#fdfdfc;fill-opacity:1;fill-rule:nonzero;stroke:none"
             id="path346" /></g><g
           id="g348"
           transform="translate(238.3236,92.3352)"><path
             d="m 0,0 c 0,-1.546 0.061,-3.096 -0.012,-4.639 -0.166,-3.505 -4.376,-5.851 -7.439,-4.172 -0.809,0.445 -1.117,1.192 -1.158,2.088 -0.2,4.444 -0.196,8.888 0.01,13.331 0.07,1.519 0.807,2.313 2.41,2.392 4.59,0.224 6.176,-1.251 6.199,-5.907 0.005,-1.031 0,-2.062 0,-3.093 z"
             style="fill:#fdfdfe;fill-opacity:1;fill-rule:nonzero;stroke:none"
             id="path350" /></g><g
           id="g352"
           transform="translate(318.787,91.9651)"><path
             d="m 0,0 c 0,-1.871 0.031,-3.742 -0.009,-5.612 -0.034,-1.603 -0.761,-2.685 -2.427,-3.013 -2.61,-0.515 -4.522,0.019 -5.282,1.606 -0.3,0.626 -0.564,1.341 -0.579,2.021 -0.079,3.548 -0.16,7.101 -0.067,10.646 0.063,2.402 1.996,4.032 4.362,3.975 C -1.676,9.566 -0.074,8.01 0.122,5.615 0.138,5.422 0.145,5.229 0.145,5.035 0.146,3.356 0.146,1.678 0.146,0 Z"
             style="fill:#fdfdfc;fill-opacity:1;fill-rule:nonzero;stroke:none"
             id="path354" /></g><g
           id="g356"
           transform="translate(597.9003,93.3645)"><path
             d="m 0,0 c 0,-1.805 0.072,-3.614 -0.017,-5.415 -0.122,-2.451 -1.045,-3.319 -3.465,-3.48 -2.966,-0.198 -4.336,0.612 -4.823,2.957 -0.369,1.779 -0.255,3.597 -0.256,5.402 -0.002,1.934 -0.05,3.873 0.044,5.804 0.13,2.637 1.953,4.27 4.538,4.199 C -1.622,9.403 -0.026,7.742 0.096,5.225 0.103,5.096 0.106,4.967 0.106,4.838 V 0 C 0.071,0 0.036,0 0,0"
             style="fill:#fdfdfc;fill-opacity:1;fill-rule:nonzero;stroke:none"
             id="path358" /></g><g
           id="g360"
           transform="translate(243.265,23.053)"><path
             d="M 0,0 C -0.155,1.104 -0.069,2.11 1.721,1.924 3.165,1.773 4.479,1.606 4.554,-0.221 4.615,-1.689 3.351,-2.613 1.441,-2.587 -0.003,-2.566 -0.003,-2.566 0,0"
             style="fill:#ffffff;fill-opacity:1;fill-rule:nonzero;stroke:none"
             id="path362" /></g><g
           id="g364"
           transform="translate(441.5487,24.0286)"><path
             d="m 0,0 c 0.593,-1.546 1.062,-2.878 1.614,-4.174 0.373,-0.874 0.306,-1.349 -0.779,-1.265 -0.255,0.02 -0.513,0.001 -0.77,0 -2.412,-0.01 -2.434,-0.001 -1.527,2.251 C -1.057,-2.184 -0.877,-1.072 0,0"
             style="fill:#ffffff;fill-opacity:1;fill-rule:nonzero;stroke:none"
             id="path366" /></g><g
           id="g368"
           transform="translate(214.7772,18.4182)"><path
             d="m 0,0 c 0.002,-2.453 -0.541,-3.302 -2.123,-3.32 -1.41,-0.017 -2.153,1.01 -2.169,2.994 -0.017,2.241 0.854,3.451 2.455,3.414 C -0.378,3.055 -0.002,2.421 0,0"
             style="fill:#ffffff;fill-opacity:1;fill-rule:nonzero;stroke:none"
             id="path370" /></g><g
           id="g372"
           transform="translate(214.7772,18.4182)"><path
             d="m 0,0 c 0.002,-2.453 -0.541,-3.302 -2.123,-3.32 -1.41,-0.017 -2.153,1.01 -2.169,2.994 -0.017,2.241 0.854,3.451 2.455,3.414 C -0.378,3.055 -0.002,2.421 0,0 Z"
             style="fill:none;stroke:#231f20;stroke-width:1;stroke-linecap:butt;stroke-linejoin:miter;stroke-miterlimit:10;stroke-dasharray:none;stroke-opacity:1"
             id="path374" /></g><g
           id="g376"
           transform="translate(579.368,14.2405)"><path
             d="m 0,0 c 0.826,-0.317 2.585,0.422 2.513,-1.3 -0.056,-1.333 -1.56,-1.226 -2.637,-1.206 -0.98,0.019 -2.111,0.137 -2.06,1.412 C -2.137,0.097 -1.073,0.093 0,0"
             style="fill:#ffffff;fill-opacity:1;fill-rule:nonzero;stroke:none"
             id="path378" /></g><g
           id="g380"
           transform="translate(581.1688,20.0764)"><path
             d="M 0,0 C -0.03,-1.16 -0.721,-1.635 -1.719,-1.696 -2.752,-1.76 -3.511,-1.253 -3.568,-0.191 -3.632,0.964 -2.905,1.584 -1.772,1.57 -0.764,1.559 -0.084,1.065 0,0"
             style="fill:#ffffff;fill-opacity:1;fill-rule:nonzero;stroke:none"
             id="path382" /></g><g
           id="g384"
           transform="translate(361.038,14.2249)"><path
             d="M 0,0 C 0.842,-0.278 2.528,0.319 2.47,-1.201 2.413,-2.661 0.816,-2.492 -0.311,-2.474 -1.217,-2.459 -2.319,-2.322 -2.284,-1.158 -2.243,0.193 -1.079,0.065 0,0"
             style="fill:#ffffff;fill-opacity:1;fill-rule:nonzero;stroke:none"
             id="path386" /></g><g
           id="g388"
           transform="translate(360.9618,21.678)"><path
             d="m 0,0 c 0.974,-0.082 1.741,-0.513 1.794,-1.589 0.06,-1.217 -0.776,-1.703 -1.846,-1.715 -1.034,-0.01 -1.721,0.569 -1.716,1.646 C -1.762,-0.576 -1.039,-0.101 0,0"
             style="fill:#ffffff;fill-opacity:1;fill-rule:nonzero;stroke:none"
             id="path390" /></g><g
           id="g392"
           transform="translate(426.0995,14.2424)"><path
             d="M 0,0 C 0.848,-0.357 2.621,0.426 2.646,-1.233 2.666,-2.637 1.124,-2.492 0.057,-2.49 -0.927,-2.487 -2.064,-2.375 -2.028,-1.081 -2,-0.013 -1.018,0.083 0,0"
             style="fill:#ffffff;fill-opacity:1;fill-rule:nonzero;stroke:none"
             id="path394" /></g><g
           id="g396"
           transform="translate(428.0565,19.9299)"><path
             d="m 0,0 c -0.083,-1.106 -0.815,-1.538 -1.81,-1.557 -1.039,-0.019 -1.793,0.548 -1.796,1.595 -0.005,1.146 0.793,1.739 1.911,1.689 C -0.679,1.68 -0.026,1.135 0,0"
             style="fill:#ffffff;fill-opacity:1;fill-rule:nonzero;stroke:none"
             id="path398" /></g><g
           id="g400"
           transform="translate(619.5692,18.1165)"><path
             d="M 0,0 C 0.001,2.406 0.573,3.271 2.176,3.291 3.64,3.308 4.345,2.347 4.36,0.311 4.378,-1.896 3.48,-3.12 1.87,-3.087 0.407,-3.056 -0.002,-2.382 0,0"
             style="fill:#ffffff;fill-opacity:1;fill-rule:nonzero;stroke:none"
             id="path402" /></g><g
           id="g404"
           transform="translate(465.1132,18.6643)"><path
             d="m 0,0 c -0.001,-2.661 -0.694,-3.686 -2.29,-3.553 -1.891,0.157 -2.102,1.612 -2.121,3.09 -0.026,2.019 0.948,3.358 2.437,3.31 C 0.218,2.776 0.066,1.164 0,0"
             style="fill:#ffffff;fill-opacity:1;fill-rule:nonzero;stroke:none"
             id="path406" /></g><g
           id="g408"
           transform="translate(271.4828,18.2512)"><path
             d="M 0,0 C 0,0.514 -0.087,1.046 0.018,1.537 0.255,2.641 1.104,3.09 2.131,3.165 3.142,3.239 3.86,2.759 4.146,1.751 4.413,0.811 4.443,-0.138 4.251,-1.108 3.974,-2.511 3.195,-3.32 1.741,-3.205 c -1.456,0.115 -1.917,1.079 -1.782,2.434 0.025,0.254 0.003,0.514 0.003,0.771 z"
             style="fill:#ffffff;fill-opacity:1;fill-rule:nonzero;stroke:none"
             id="path410" /></g><g
           id="g412"
           transform="translate(667.1571,18.0696)"><path
             d="M 0,0 C -0.043,-1.965 -0.928,-3.051 -2.464,-3.023 -4.028,-2.996 -4.911,-1.799 -4.889,0.265 -4.865,2.328 -3.952,3.42 -2.3,3.359 -0.734,3.303 0.048,2.161 0,0"
             style="fill:#ffffff;fill-opacity:1;fill-rule:nonzero;stroke:none"
             id="path414" /></g><g
           id="g416"
           transform="translate(557.1688,18.2249)"><path
             d="m 0,0 c -0.002,-2.097 -0.895,-3.231 -2.499,-3.179 -1.504,0.05 -2.355,1.172 -2.378,3.134 C -4.9,2.088 -4.093,3.169 -2.451,3.202 -0.825,3.234 0.001,2.155 0,0"
             style="fill:#ffffff;fill-opacity:1;fill-rule:nonzero;stroke:none"
             id="path418" /></g><g
           id="g420"
           transform="translate(307.9735,18.4339)"><path
             d="M 0,0 C 0.046,2.018 0.856,3.002 2.468,2.998 4.059,2.994 4.906,1.847 4.882,-0.271 4.859,-2.311 3.885,-3.489 2.3,-3.395 0.746,-3.302 -0.049,-2.129 0,0"
             style="fill:#ffffff;fill-opacity:1;fill-rule:nonzero;stroke:none"
             id="path422" /></g><g
           id="g424"
           transform="translate(634.3348,18.1526)"><path
             d="M 0,0 C -0.02,-2.008 -0.833,-3.079 -2.362,-3.109 -3.949,-3.141 -4.87,-1.965 -4.875,0.099 -4.88,2.192 -4.012,3.289 -2.362,3.273 -0.722,3.257 0.021,2.228 0,0"
             style="fill:#ffffff;fill-opacity:1;fill-rule:nonzero;stroke:none"
             id="path426" /></g><g
           id="g428"
           transform="translate(571.8583,18.1507)"><path
             d="m 0,0 c -0.024,-2.056 -0.942,-3.188 -2.529,-3.121 -1.532,0.065 -2.421,1.3 -2.394,3.321 0.027,2.029 0.95,3.129 2.59,3.086 C -0.71,3.243 0.027,2.206 0,0"
             style="fill:#ffffff;fill-opacity:1;fill-rule:nonzero;stroke:none"
             id="path430" /></g><g
           id="g432"
           transform="translate(395.4852,19.2356)"><path
             d="M 0,0 C -0.665,0.422 -1.937,-0.543 -2.001,0.743 -2.053,1.796 -1.004,2.323 0.024,2.37 1.083,2.419 2.118,1.883 2.079,0.83 2.026,-0.592 0.657,0.488 0,0"
             style="fill:#ffffff;fill-opacity:1;fill-rule:nonzero;stroke:none"
             id="path434" /></g><g
           id="g436"
           transform="translate(385.8651,19.1594)"><path
             d="m 0,0 c -0.727,0.563 -2.063,-0.536 -2.032,0.906 0.023,1.077 1.106,1.53 2.129,1.525 C 1.062,2.425 2.045,1.923 2.004,0.919 1.937,-0.674 0.497,0.766 0,0"
             style="fill:#ffffff;fill-opacity:1;fill-rule:nonzero;stroke:none"
             id="path438" /></g><g
           id="g440"
           transform="translate(230.0463,18.2796)"><path
             d="m 0,0 c 0.008,-2.114 -0.857,-3.249 -2.468,-3.236 -1.58,0.012 -2.47,1.205 -2.447,3.278 0.022,2.01 0.833,3.064 2.392,3.108 C -0.855,3.198 -0.008,2.141 0,0"
             style="fill:#ffffff;fill-opacity:1;fill-rule:nonzero;stroke:none"
             id="path442" /></g><g
           id="g444"
           transform="translate(255.5961,19.1594)"><path
             d="m 0,0 c -0.76,0.53 -2.045,-0.503 -2.107,0.81 -0.05,1.052 1.005,1.586 2.045,1.632 C 1.01,2.49 2.046,1.929 2.012,0.886 1.961,-0.654 0.511,0.747 0,0"
             style="fill:#ffffff;fill-opacity:1;fill-rule:nonzero;stroke:none"
             id="path446" /></g><g
           id="g448"
           transform="translate(255.5961,19.1594)"><path
             d="m 0,0 c -0.76,0.53 -2.045,-0.503 -2.107,0.81 -0.05,1.052 1.005,1.586 2.045,1.632 C 1.01,2.49 2.046,1.929 2.012,0.886 1.961,-0.654 0.511,0.747 0,0 Z"
             style="fill:none;stroke:#231f20;stroke-width:1;stroke-linecap:butt;stroke-linejoin:miter;stroke-miterlimit:10;stroke-dasharray:none;stroke-opacity:1"
             id="path450" /></g><g
           id="g452"
           transform="translate(196.7963,17.511)"><path
             d="M 0,0 C 1.068,0.198 1.477,-0.08 1.425,-0.834 1.337,-2.112 0.423,-2.527 -0.648,-2.664 -1.518,-2.775 -2.289,-2.425 -2.177,-1.451 -2.009,0.018 -0.621,-0.234 0,0"
             style="fill:#ffffff;fill-opacity:1;fill-rule:nonzero;stroke:none"
             id="path454" /></g><g
           id="g456"
           transform="translate(294.577,17.552)"><path
             d="M 0,0 C 0.876,0.078 1.22,-0.282 1.106,-1.008 0.909,-2.264 -0.049,-2.604 -1.113,-2.692 -1.935,-2.761 -2.578,-2.313 -2.444,-1.469 -2.214,-0.027 -0.864,-0.256 0,0"
             style="fill:#ffffff;fill-opacity:1;fill-rule:nonzero;stroke:none"
             id="path458" /></g><g
           id="g460"
           transform="translate(649.0048,17.6399)"><path
             d="M 0,0 C 0.839,0.058 1.191,-0.321 1.086,-1.038 0.887,-2.394 -0.132,-2.759 -1.287,-2.82 -2.094,-2.862 -2.799,-2.415 -2.659,-1.585 -2.405,-0.075 -0.97,-0.287 0,0"
             style="fill:#ffffff;fill-opacity:1;fill-rule:nonzero;stroke:none"
             id="path462" /></g><g
           id="g464"
           transform="translate(612.245,17.5491)"><path
             d="m 0,0 c 0.994,0.184 1.412,-0.149 1.319,-0.87 -0.17,-1.321 -1.173,-1.732 -2.312,-1.845 -0.8,-0.08 -1.495,0.312 -1.403,1.16 C -2.224,0.025 -0.774,-0.245 0,0"
             style="fill:#ffffff;fill-opacity:1;fill-rule:nonzero;stroke:none"
             id="path466" /></g><g
           id="g468"
           transform="translate(92.6908,116.3709)"><path
             d="m 0,0 c 0.239,-3.101 -0.315,-6.167 -0.393,-9.254 -0.015,-0.615 -0.391,-1.45 0.219,-1.794 0.653,-0.369 1.318,0.25 1.9,0.621 2.834,1.807 4.172,4.625 5.091,7.709 0.623,2.091 0.606,2.095 2.4,0.867 1.537,-1.052 3.033,-2.174 4.626,-3.131 1.222,-0.734 1.391,-1.371 0.489,-2.549 -1.64,-2.14 -3.188,-4.36 -4.651,-6.627 -1.304,-2.02 -0.911,-5.047 0.669,-6.414 -0.549,-0.464 -1.112,-0.285 -1.531,0.119 -1.323,1.28 -2.871,1.001 -4.428,0.745 -5.615,-1.058 -9.945,-4.202 -13.543,-8.486 -2.375,-2.827 -3.799,-3.096 -6.174,-1.007 0.344,2.464 0.718,4.923 1.022,7.391 0.403,3.258 0.512,4.79 0.507,8.05 0.29,0.128 0.999,0.073 1.23,0.072 1.444,-0.013 0.944,-0.172 1.109,-0.223 0.43,-0.019 0.821,-0.063 1.156,0.301 0.87,0.429 0.779,0.463 1.051,0.563 0.961,0.351 0.277,0.052 1.587,0.583 0.528,0.111 1.037,0.289 1.292,0.347 0.582,0.131 -0.477,-0.052 2.063,0.539 0.562,0.131 0.655,0.256 1.22,0.358 1.302,0.236 1.853,1.019 1.762,2.308 -0.173,2.45 0.369,4.858 0.436,7.295 C -0.874,-0.996 -1.037,-0.122 0,0"
             style="fill:#a01f2a;fill-opacity:1;fill-rule:nonzero;stroke:none"
             id="path470" /></g><g
           id="g472"
           transform="translate(92.6908,116.3709)"><path
             d="m 0,0 c 0.23,-2.849 -0.261,-5.053 -0.312,-7.591 -0.08,-3.978 -0.718,-3.136 -4.605,-4.13 -1.115,-0.285 -1.702,-0.463 -4.191,-1.275 -0.964,-0.314 0.278,2.207 0.357,3.684 0.033,1.058 0.256,2.081 0.379,2.88 0.351,2.268 0.924,4.491 1.406,6.731 0.097,0.124 0.195,0.247 0.291,0.371 1.796,0.096 3.592,0.201 5.388,0.284 C -0.622,0.984 0.283,1.284 0,0"
             style="fill:#c52529;fill-opacity:1;fill-rule:nonzero;stroke:none"
             id="path474" /></g></g></g></g></svg>
